#!OML:ASF F:\twosubjects\two\Thursday\Session 1\justin.ASF
:FULLY-SPECIFIED
:DEGREES
254
root 23.6009 16.2856 1.11075 11.6005 -37.3409 -5.64182
lowerback 27.8056 2.70821 -8.82013
upperback 9.94104 0.628037 -2.13538
thorax -4.24197 0.0359636 2.51265
lowerneck -5.32502 -12.4278 -19.4567
upperneck -22.0129 -13.8354 27.9764
head -1.62321 -7.43322 11.9383
rclavicle -8.5875e-014 -2.54444e-014
rhumerus -27.4218 -15.5514 -77.4489
rradius 41.0366
rwrist -7.53371
rhand -18.3119 9.51203
rfingers 7.12502
rthumb 7.96936 -20.3177
lclavicle -8.5875e-014 -2.54444e-014
lhumerus -29.7244 -9.56556 85.5362
lradius 74.2272
lwrist -8.71757
lhand -14.3002 33.8103
lfingers 7.12502
lthumb 11.8396 63.4556
rfemur -47.8305 -9.147 14.1794
rtibia 63.9204
rfoot -21.2908 -2.42892
rtoes -16.2732
lfemur -40.341 13.0936 -6.75046
ltibia 63.4871
lfoot -28.236 -2.34404
ltoes -22.6114
255
root 23.6238 16.2685 1.09108 11.541 -37.1711 -6.06698
lowerback 27.911 2.67173 -8.66409
upperback 10.0138 0.620568 -2.02283
thorax -4.21142 0.0283289 2.55045
lowerneck -6.87415 -12.816 -18.7062
upperneck -20.5483 -14.396 26.9858
head -1.02244 -7.57801 11.1775
rclavicle 1.90833e-014 7.31528e-014
rhumerus -27.2063 -15.4169 -77.7776
rradius 41.155
rwrist -6.96178
rhand -17.7842 10.5253
rfingers 7.12502
rthumb 8.47862 -19.2845
lclavicle 1.90833e-014 7.31528e-014
lhumerus -30.0069 -9.4917 85.5532
lradius 74.5861
lwrist -8.81928
lhand -13.5922 32.9482
lfingers 7.12502
lthumb 12.5222 62.5529
rfemur -47.3997 -8.99659 14.2682
rtibia 64.5702
rfoot -21.9253 -3.28635
rtoes -16.1481
lfemur -40.2861 13.1081 -6.31345
ltibia 63.7039
lfoot -28.2106 -2.60237
ltoes -22.3612
256
root 23.6387 16.251 1.06603 11.4791 -37.0022 -6.47198
lowerback 28.0135 2.702 -8.44824
upperback 10.0695 0.7096 -1.94712
thorax -4.20856 0.0706939 2.4836
lowerneck -5.85647 -12.733 -19.1323
upperneck -21.3716 -14.2531 28.0912
head -1.26788 -7.6259 11.7696
rclavicle 7.31528e-014 1.27222e-014
rhumerus -27.1036 -15.3587 -77.9868
rradius 41.2212
rwrist -6.4813
rhand -17.3101 11.3297
rfingers 7.12502
rthumb 8.93612 -18.4611
lclavicle 7.31528e-014 1.27222e-014
lhumerus -30.1274 -9.79413 85.5551
lradius 74.8819
lwrist -8.63539
lhand -13.3835 32.4276
lfingers 7.12502
lthumb 12.7235 62.02
rfemur -46.9667 -8.86222 14.3949
rtibia 65.2807
rfoot -22.5126 -4.18764
rtoes -15.9961
lfemur -40.2428 13.1312 -5.85869
ltibia 63.9196
lfoot -28.1631 -2.83532
ltoes -22.0779
257
root 23.6516 16.2342 1.03977 11.2511 -36.8651 -6.31444
lowerback 27.9919 2.77981 -8.68434
upperback 10.0163 0.75039 -1.93445
thorax -4.26032 0.0910099 2.61856
lowerneck -5.31673 -12.5623 -18.8961
upperneck -21.8007 -14.0751 27.7345
head -1.58559 -7.57142 11.7083
rclavicle -3.02153e-014 6.36111e-014
rhumerus -27.0745 -15.4452 -77.9869
rradius 40.9205
rwrist -5.80253
rhand -18.352 10.0626
rfingers 7.12502
rthumb 7.93057 -19.7686
lclavicle -3.02153e-014 6.36111e-014
lhumerus -30.2333 -10.0159 85.555
lradius 75.0355
lwrist -8.46144
lhand -13.3893 32.1399
lfingers 7.12502
lthumb 12.7179 61.7326
rfemur -46.7437 -8.90963 14.0654
rtibia 66.0744
rfoot -22.597 -4.78575
rtoes -15.9928
lfemur -40.4248 13.0081 -5.95478
ltibia 64.1962
lfoot -28.1773 -2.88329
ltoes -22.1274
258
root 23.6664 16.2147 1.00635 11.0008 -36.6299 -5.95733
lowerback 28.0454 2.80296 -9.12452
upperback 9.84022 0.658822 -1.91945
thorax -4.46949 0.0563911 2.91159
lowerneck -5.4472 -12.8626 -18.8109
upperneck -21.2646 -14.5342 27.8156
head -1.30368 -7.78942 11.5997
rclavicle -2.70347e-014 1.90833e-014
rhumerus -27.0235 -15.4329 -78.044
rradius 40.5531
rwrist -5.25588
rhand -18.2943 13.9664
rfingers 7.12502
rthumb 7.98631 -15.8627
lclavicle -2.70347e-014 1.90833e-014
lhumerus -30.4484 -9.91471 85.6475
lradius 75.132
lwrist -8.43635
lhand -13.9745 32.1131
lfingers 7.12502
lthumb 12.1537 61.7401
rfemur -46.6883 -9.14862 13.5983
rtibia 66.9347
rfoot -22.5892 -5.45816
rtoes -15.259
lfemur -40.8446 12.805 -6.26982
ltibia 64.4505
lfoot -28.1533 -2.70819
ltoes -23.0579
259
root 23.6753 16.1912 0.972448 10.9948 -36.3661 -6.33333
lowerback 28.2873 2.78099 -9.05301
upperback 9.69254 0.631272 -1.7564
thorax -4.74897 0.0587799 3.05812
lowerneck -6.52299 -13.229 -18.5126
upperneck -19.8273 -15.0983 27.1749
head -0.709368 -7.94621 11.0722
rclavicle 3.18055e-015 4.77083e-015
rhumerus -27.1701 -14.8212 -78.1233
rradius 40.6934
rwrist -5.17894
rhand -18.2171 15.0715
rfingers 7.12502
rthumb 8.06078 -14.7547
lclavicle 3.18055e-015 4.77083e-015
lhumerus -30.6544 -9.84903 85.7931
lradius 75.2205
lwrist -8.25583
lhand -14.5259 32.2401
lfingers 7.12502
lthumb 11.622 61.8978
rfemur -46.3143 -9.14382 13.6837
rtibia 67.8129
rfoot -22.699 -6.0842
rtoes -13.8227
lfemur -40.7728 12.7748 -5.78734
ltibia 64.8092
lfoot -28.4439 -2.78929
ltoes -23.3855
260
root 23.6779 16.1776 0.943257 10.9774 -36.1716 -6.70429
lowerback 28.2938 2.83308 -8.97495
upperback 9.68487 0.731014 -1.59479
thorax -4.77402 0.107034 3.16154
lowerneck -6.40764 -13.2503 -18.5383
upperneck -19.7942 -15.1366 27.3215
head -0.687344 -7.97558 11.1242
rclavicle 1.27222e-014 -4.6118e-014
rhumerus -27.2721 -14.2993 -78.2003
rradius 40.9434
rwrist -5.19028
rhand -18.2897 14.5594
rfingers 7.12502
rthumb 7.99077 -15.2695
lclavicle 1.27222e-014 -4.6118e-014
lhumerus -30.6512 -10.0518 85.874
lradius 75.3179
lwrist -7.91154
lhand -13.8656 32.0834
lfingers 7.12502
lthumb 12.2587 61.7041
rfemur -45.767 -8.80929 13.6692
rtibia 68.6422
rfoot -22.5581 -6.72346
rtoes -14.1176
lfemur -40.8761 12.6994 -5.32975
ltibia 64.9551
lfoot -28.2352 -3.18739
ltoes -22.8074
261
root 23.6801 16.1632 0.922022 10.5888 -36.0402 -6.30086
lowerback 28.0091 2.92055 -9.26209
upperback 9.68461 0.797383 -1.66761
thorax -4.64425 0.133256 3.22485
lowerneck -4.83411 -12.9335 -19.0676
upperneck -21.0787 -14.7019 28.2784
head -1.22652 -7.90709 11.803
rclavicle -6.36111e-014 2.22639e-014
rhumerus -27.2735 -14.5049 -78.3535
rradius 40.8793
rwrist -5.00664
rhand -18.6396 12.6033
rfingers 7.12502
rthumb 7.653 -17.2382
lclavicle -6.36111e-014 2.22639e-014
lhumerus -30.654 -10.3612 85.9155
lradius 75.413
lwrist -7.71924
lhand -13.0207 31.878
lfingers 7.12502
lthumb 13.0733 61.4482
rfemur -45.3008 -8.73305 12.9952
rtibia 69.4679
rfoot -22.1817 -7.28531
rtoes -14.3742
lfemur -41.0443 12.5108 -5.6516
ltibia 65.0711
lfoot -28.0236 -3.45887
ltoes -21.8834
262
root 23.6776 16.1519 0.903014 10.1671 -35.917 -6.10457
lowerback 27.7553 2.92752 -9.25458
upperback 9.74424 0.833904 -1.78628
thorax -4.4602 0.14434 3.08025
lowerneck -3.58456 -12.9299 -19.8631
upperneck -21.9113 -14.7047 29.497
head -1.43016 -8.03086 12.5104
rclavicle -1.43125e-014 3.18055e-015
rhumerus -27.1857 -14.5293 -78.6442
rradius 40.8097
rwrist -5.33464
rhand -19.9537 8.02553
rfingers 7.12502
rthumb 6.38454 -21.8582
lclavicle -1.43125e-014 3.18055e-015
lhumerus -30.5306 -10.4684 85.857
lradius 75.4314
lwrist -7.76698
lhand -12.457 31.9984
lfingers 7.12502
lthumb 13.6166 61.533
rfemur -44.6526 -8.83827 12.5336
rtibia 70.2651
rfoot -21.9667 -7.62355
rtoes -13.7359
lfemur -40.8553 12.4486 -5.76085
ltibia 65.1498
lfoot -27.9816 -3.58381
ltoes -21.4758
263
root 23.6757 16.1398 0.874753 9.72509 -35.8175 -6.03286
lowerback 27.7206 3.03321 -9.15072
upperback 9.87967 0.990532 -1.92906
thorax -4.30783 0.211806 2.81581
lowerneck -6.19085 -13.564 -17.9449
upperneck -19.3501 -15.6813 27.0861
head -0.560985 -8.26544 10.8503
rclavicle 8.5875e-014 -2.06736e-014
rhumerus -27.0675 -14.23 -79.2217
rradius 41.0788
rwrist -7.09857
rhand -21.0691 8.51249
rfingers 7.12502
rthumb 5.30765 -21.401
lclavicle 8.5875e-014 -2.06736e-014
lhumerus -30.097 -10.7655 85.6481
lradius 75.3294
lwrist -7.91
lhand -12.099 32.0286
lfingers 7.12502
lthumb 13.9616 61.5399
rfemur -43.9054 -8.74073 12.1342
rtibia 71.0791
rfoot -22.1291 -7.95082
rtoes -13.1106
lfemur -40.5718 12.4007 -5.6979
ltibia 65.2178
lfoot -27.974 -3.62047
ltoes -21.8494
264
root 23.6765 16.1206 0.842599 9.12594 -35.5885 -5.6972
lowerback 27.9341 3.19269 -9.33401
upperback 9.82418 1.11392 -1.96657
thorax -4.48305 0.278102 2.83568
lowerneck -5.0862 -13.6173 -18.2828
upperneck -20.1495 -15.756 27.9917
head -0.792995 -8.42029 11.3206
rclavicle -6.20208e-014 3.65764e-014
rhumerus -27.4055 -15.6956 -78.501
rradius 40.288
rwrist -3.5739
rhand -17.7636 14.8325
rfingers 7.12502
rthumb 8.49849 -14.9765
lclavicle -6.20208e-014 3.65764e-014
lhumerus -30.054 -11.0781 85.7068
lradius 75.2277
lwrist -8.21094
lhand -12.0841 31.7514
lfingers 7.12502
lthumb 13.976 61.2616
rfemur -43.0559 -8.69313 11.4845
rtibia 71.8858
rfoot -22.0693 -8.54125
rtoes -11.6651
lfemur -40.3802 12.1699 -5.84053
ltibia 65.3079
lfoot -28.0021 -3.63904
ltoes -22.184
265
root 23.6679 16.1006 0.809803 8.77856 -35.0789 -5.72913
lowerback 28.1761 3.1158 -9.38507
upperback 9.61218 0.991779 -1.73077
thorax -4.82547 0.239354 3.16001
lowerneck -3.96719 -13.2955 -18.6787
upperneck -20.7224 -15.3795 28.1235
head -1.16735 -8.29017 11.6176
rclavicle -6.36111e-015 -3.33958e-014
rhumerus -27.8478 -16.1819 -77.6964
rradius 39.452
rwrist -1.37881
rhand -16.1433 17.1413
rfingers 7.12502
rthumb 10.0619 -12.5981
lclavicle -6.36111e-015 -3.33958e-014
lhumerus -30.3931 -10.7962 86.0775
lradius 75.072
lwrist -8.56206
lhand -12.3772 31.6055
lfingers 7.12502
lthumb 13.6935 61.135
rfemur -42.0954 -8.80438 11.2292
rtibia 72.6306
rfoot -21.7435 -8.90711
rtoes -9.36011
lfemur -40.3196 11.8488 -5.60331
ltibia 65.4462
lfoot -27.9979 -4.05212
ltoes -21.3027
